<svg width="117" height="117" viewBox="0 0 117 117" fill="none" xmlns="http://www.w3.org/2000/svg">
<g clip-path="url(#clip0_8_2)">
<path d="M115.716 111.615L101.618 68.1086C101.069 66.4111 99.4869 65.2614 97.7028 65.2614H87.7504C92.2066 57.1865 95.4077 47.6512 95.4077 36.9118C95.4077 16.5587 78.8506 0 58.4992 0C38.1494 0 21.5928 16.5587 21.5928 36.9118C21.5928 47.6512 24.7939 57.1865 29.2496 65.2614H19.2978C17.5131 65.2614 15.9326 66.4111 15.3821 68.1086L1.28419 111.615C0.878083 112.868 1.0965 114.24 1.87085 115.305C2.6452 116.37 3.88273 117 5.19983 117H111.801C113.118 117 114.355 116.37 115.13 115.305C115.904 114.24 116.122 112.868 115.716 111.615ZM58.4992 8.2319C74.3116 8.2319 87.1758 21.0978 87.1758 36.9118C87.1758 62.1783 65.617 80.6485 58.4948 86.0601C51.3671 80.6633 29.8247 62.2513 29.8247 36.9118C29.8247 21.0978 42.6879 8.2319 58.4992 8.2319ZM10.8601 108.768L22.2909 73.4933H34.5262C44.0314 86.4575 55.4309 94.0423 56.2475 94.5763C56.9318 95.0236 57.7155 95.2469 58.4997 95.2469C59.284 95.2469 60.0676 95.0236 60.752 94.5763C61.5675 94.0429 72.9687 86.4575 82.4743 73.4933H94.7108L106.141 108.768H10.8601Z" fill="#A514D8"/>
<circle cx="59.5" cy="37.5" r="12.5" fill="#A514D8"/>
</g>
<defs>
<clipPath id="clip0_8_2">
<rect width="117" height="117" fill="white"/>
</clipPath>
</defs>
</svg>
